<svg width="125" height="30" viewBox="0 0 125 30" fill="none" xmlns="http://www.w3.org/2000/svg">
<mask id="path-1-inside-1_34_96" fill="white">
<path fill-rule="evenodd" clip-rule="evenodd" d="M48.6866 12.2757L38.6736 3.00001L38.6735 3.00004L38.6735 2.99998L29.3978 13.013C27.5212 15.0388 27.6421 18.2023 29.6679 20.0789L30.8825 21.2041C32.9083 23.0807 36.0718 22.9598 37.9484 20.934L39.3031 19.4716L40.7656 20.8264C42.7914 22.703 45.9549 22.582 47.8315 20.5563L48.9567 19.3416C50.8333 17.3158 50.7124 14.1523 48.6866 12.2757Z"/>
</mask>
<path d="M38.6736 3.00001L54.9835 -14.6064L37.3771 -30.9163L21.0671 -13.3099L38.6736 3.00001ZM48.6866 12.2757L32.3767 29.8821L48.6866 12.2757ZM38.6735 3.00004L22.3636 20.6065L39.97 36.9164L56.28 19.31L38.6735 3.00004ZM38.6735 2.99998L54.9834 -14.6064L37.377 -30.9164L21.067 -13.31L38.6735 2.99998ZM39.3031 19.4716L55.6131 1.86518L38.0067 -14.4448L21.6967 3.16167L39.3031 19.4716ZM40.7656 20.8264L24.4557 38.4328L40.7656 20.8264ZM47.8315 20.5563L65.4379 36.8662L47.8315 20.5563ZM48.9567 19.3416L66.5631 35.6515L48.9567 19.3416ZM22.3636 20.6064L32.3767 29.8821L64.9965 -5.33071L54.9835 -14.6064L22.3636 20.6064ZM56.28 19.31L56.28 19.3099L21.0671 -13.3099L21.0671 -13.3099L56.28 19.31ZM22.3635 20.6064L22.3636 20.6065L54.9835 -14.6064L54.9834 -14.6064L22.3635 20.6064ZM47.0042 29.3229L56.2799 19.3099L21.067 -13.31L11.7913 -3.29691L47.0042 29.3229ZM45.9778 2.4725C53.6758 9.60361 54.1353 21.625 47.0042 29.3229L11.7913 -3.29691C0.906997 8.45263 1.6084 26.801 13.3579 37.6853L45.9778 2.4725ZM47.1924 3.5977L45.9778 2.4725L13.3579 37.6853L14.5726 38.8105L47.1924 3.5977ZM20.342 4.62409C27.4731 -3.07389 39.4945 -3.5334 47.1924 3.5977L14.5726 38.8105C26.3221 49.6949 44.6705 48.9935 55.5548 37.244L20.342 4.62409ZM21.6967 3.16167L20.342 4.62409L55.5548 37.244L56.9096 35.7815L21.6967 3.16167ZM57.0755 3.21994L55.6131 1.86518L22.9932 37.078L24.4557 38.4328L57.0755 3.21994ZM30.2251 4.24633C37.3562 -3.45164 49.3776 -3.91117 57.0755 3.21994L24.4557 38.4328C36.2052 49.3171 54.5536 48.6157 65.4379 36.8662L30.2251 4.24633ZM31.3503 3.03169L30.2251 4.24633L65.4379 36.8662L66.5631 35.6515L31.3503 3.03169ZM32.3767 29.8821C24.6787 22.751 24.2192 10.7297 31.3503 3.03169L66.5631 35.6515C77.4475 23.902 76.7461 5.55363 64.9965 -5.33071L32.3767 29.8821Z" fill="#E28479" mask="url(#path-1-inside-1_34_96)"/>
<path d="M12.1875 5.01172L10.1836 22.6719C10.1523 22.8516 10.0547 22.9492 9.89062 22.9648L7.47656 23.0469C7.30469 23.0469 7.21875 22.9727 7.21875 22.8242L8.08594 15.125L5.10938 15.2305L4.26562 22.6719C4.24219 22.8594 4.14062 22.957 3.96094 22.9648L1.54688 23.0469C1.375 23.0469 1.28906 22.9727 1.28906 22.8242L3.30469 5.09375C3.33594 4.92969 3.4375 4.83984 3.60938 4.82422L5.96484 4.73047C6.16797 4.73828 6.26953 4.83203 6.26953 5.01172L5.41406 12.4766L8.40234 12.3711L9.22266 5.09375C9.24609 4.92187 9.35156 4.83203 9.53906 4.82422L11.8828 4.73047C12.0859 4.73828 12.1875 4.83203 12.1875 5.01172ZM21.2109 14.9844L17.5664 15.125L17.0156 19.9297L21.5039 19.7773C21.707 19.7852 21.8086 19.8867 21.8086 20.082L21.5039 22.5078C21.4883 22.6719 21.3867 22.7734 21.1992 22.8125L13.9922 23.0469C13.8203 23.0469 13.7344 22.9727 13.7344 22.8242L15.7617 5.09375C15.793 4.92969 15.8945 4.83984 16.0664 4.82422L22.4883 4.60156C22.6836 4.625 22.7812 4.73047 22.7812 4.91797L22.4883 7.34375C22.4648 7.53906 22.3633 7.64453 22.1836 7.66016L18.4102 7.76562L17.9062 12.125L21.5156 11.9961C21.7188 12.0039 21.8203 12.1055 21.8203 12.3008L21.5156 14.6914C21.4844 14.8711 21.3828 14.9688 21.2109 14.9844Z" fill="black"/>
<path d="M65.6165 22.7188C65.6165 22.875 65.511 22.9531 65.3 22.9531L62.6633 23.0469C62.5461 23.0391 62.4602 22.9648 62.4055 22.8242L59.4641 15.3711L58.6438 22.6719C58.6204 22.8594 58.5227 22.957 58.3508 22.9648L55.9016 23.0469C55.7297 23.0312 55.6438 22.957 55.6438 22.8242L57.6711 5.1875C57.6868 5.04688 57.7219 4.95312 57.7766 4.90625C57.8313 4.85156 58.2454 4.79297 59.0188 4.73047C59.7922 4.66016 60.8235 4.625 62.1125 4.625C63.4016 4.625 64.3938 4.96875 65.0891 5.65625C65.7922 6.33594 66.1438 7.21484 66.1438 8.29297C66.1438 9.37109 66.0149 10.3242 65.7571 11.1523C65.4993 11.9727 65.0735 12.7109 64.4797 13.3672C63.886 14.0234 63.1438 14.5117 62.2532 14.832L65.5813 22.5781C65.6047 22.625 65.6165 22.6719 65.6165 22.7188ZM60.3665 7.35547L59.7102 13.1797C61.1555 13.0938 62.1516 12.4375 62.6985 11.2109C62.9954 10.5391 63.1438 9.85938 63.1438 9.17188C63.1438 8.47656 62.9993 7.99219 62.7102 7.71875C62.429 7.4375 62.0188 7.29688 61.4797 7.29688C60.9407 7.29688 60.5696 7.31641 60.3665 7.35547ZM68.8391 4.87109L76.4329 4.60156C76.6125 4.60938 76.7024 4.70703 76.7024 4.89453L76.3977 7.29688C76.3821 7.41406 76.3547 7.49609 76.3157 7.54297C76.2844 7.58984 76.2141 7.61719 76.1047 7.625L73.8313 7.70703L72.1204 22.6719C72.0969 22.8594 71.9954 22.957 71.8157 22.9648L69.3782 23.0469C69.2219 23.0469 69.1438 22.9727 69.1438 22.8242L70.8665 7.80078L68.5344 7.87109C68.3391 7.86328 68.2415 7.77344 68.2415 7.60156L68.5344 5.16406C68.5422 4.97656 68.6438 4.87891 68.8391 4.87109ZM87.2727 8.42188C87.2727 10.75 86.3743 12.3555 84.5774 13.2383C85.1868 13.4961 85.6633 13.8945 86.0071 14.4336C86.3508 14.9648 86.5227 15.6484 86.5227 16.4844C86.5227 17.3203 86.3977 18.1133 86.1477 18.8633C85.9055 19.6133 85.5266 20.293 85.011 20.9023C83.9172 22.1992 82.179 22.8867 79.7961 22.9648L77.2766 23.0469C77.1047 23.0312 77.0188 22.957 77.0188 22.8242L79.0344 5.1875C79.05 5.04688 79.0852 4.95312 79.1399 4.90625C79.1946 4.85156 79.6829 4.79297 80.6047 4.73047C81.5266 4.66016 82.4055 4.625 83.2415 4.625C84.6477 4.625 85.6711 4.96484 86.3118 5.64453C86.9524 6.31641 87.2727 7.24219 87.2727 8.42188ZM81.5657 14.3984C81.2454 14.3984 81.0344 14.4023 80.9329 14.4102L80.3 20.1172C81.4172 20.1172 82.261 19.7617 82.8313 19.0508C83.4094 18.3398 83.6985 17.4062 83.6985 16.25C83.6985 15.7031 83.511 15.2578 83.136 14.9141C82.761 14.5703 82.2375 14.3984 81.5657 14.3984ZM81.1321 12.5469C83.3743 12.5312 84.4954 11.3438 84.4954 8.98438C84.4954 7.74219 83.8547 7.12109 82.5735 7.12109C82.2141 7.12109 81.9329 7.13281 81.7297 7.15625L81.1321 12.5469ZM96.3547 14.9844L92.7102 15.125L92.1594 19.9297L96.6477 19.7773C96.8508 19.7852 96.9524 19.8867 96.9524 20.082L96.6477 22.5078C96.6321 22.6719 96.5305 22.7734 96.343 22.8125L89.136 23.0469C88.9641 23.0469 88.8782 22.9727 88.8782 22.8242L90.9055 5.09375C90.9368 4.92969 91.0383 4.83984 91.2102 4.82422L97.6321 4.60156C97.8274 4.625 97.925 4.73047 97.925 4.91797L97.6321 7.34375C97.6086 7.53906 97.5071 7.64453 97.3274 7.66016L93.554 7.76562L93.05 12.125L96.6594 11.9961C96.8625 12.0039 96.9641 12.1055 96.9641 12.3008L96.6594 14.6914C96.6282 14.8711 96.5266 14.9688 96.3547 14.9844ZM106.855 5.01172L108.226 22.6602C108.226 22.8398 108.124 22.9375 107.921 22.9531L105.472 23.0469C105.308 23.0469 105.226 22.9727 105.226 22.8242L105.05 18.957L102.39 19.0625L101.511 22.6719C101.488 22.7812 101.456 22.8555 101.417 22.8945C101.378 22.9336 101.308 22.957 101.206 22.9648L98.7805 23.0469C98.6243 23.0469 98.5461 22.9727 98.5461 22.8242L103.691 5.09375C103.745 4.92187 103.851 4.83203 104.007 4.82422L106.585 4.73047C106.749 4.73828 106.839 4.83203 106.855 5.01172ZM104.64 9.83984L102.999 16.5664L104.945 16.4961L104.64 9.83984ZM111.894 4.87109L119.488 4.60156C119.667 4.60938 119.757 4.70703 119.757 4.89453L119.452 7.29688C119.437 7.41406 119.409 7.49609 119.37 7.54297C119.339 7.58984 119.269 7.61719 119.159 7.625L116.886 7.70703L115.175 22.6719C115.152 22.8594 115.05 22.957 114.87 22.9648L112.433 23.0469C112.277 23.0469 112.198 22.9727 112.198 22.8242L113.921 7.80078L111.589 7.87109C111.394 7.86328 111.296 7.77344 111.296 7.60156L111.589 5.16406C111.597 4.97656 111.698 4.87891 111.894 4.87109Z" fill="black"/>
</svg>
